HIERARCHY
ROOT mixamorig1:Hips
{
	OFFSET 0.000000 102.625885 0.000000
	CHANNELS 6 Xposition Yposition Zposition Xrotation Yrotation Zrotation
	JOINT mixamorig1:Spine
	{
		OFFSET 0.000000 9.795403 0.052900
		CHANNELS 3 Xrotation Yrotation Zrotation
		JOINT mixamorig1:Spine1
		{
			OFFSET 0.000000 11.427933 0.061772
			CHANNELS 3 Xrotation Yrotation Zrotation
			JOINT mixamorig1:Spine2
			{
				OFFSET 0.000000 13.060509 0.070596
				CHANNELS 3 Xrotation Yrotation Zrotation
				JOINT mixamorig1:Neck
				{
					OFFSET 0.000000 14.693085 0.079421
					CHANNELS 3 Xrotation Yrotation Zrotation
					JOINT mixamorig1:Head
					{
						OFFSET 0.000000 6.361893 0.698900
						CHANNELS 3 Xrotation Yrotation Zrotation
						JOINT mixamorig1:HeadTop_End
						{
							OFFSET 0.000000 19.539703 2.146700
							CHANNELS 3 Xrotation Yrotation Zrotation
							End Site
							{
								OFFSET 0.000000 19.657272 0.000000
							}
						}
					}
				}
				JOINT mixamorig1:LeftShoulder
				{
					OFFSET 5.392900 13.235275 0.095541
					CHANNELS 3 Xrotation Yrotation Zrotation
					JOINT mixamorig1:LeftArm
					{
						OFFSET 11.119499 -2.766815 0.032168
						CHANNELS 3 Xrotation Yrotation Zrotation
						JOINT mixamorig1:LeftForeArm
						{
							OFFSET 24.983320 0.000000 0.000001
							CHANNELS 3 Xrotation Yrotation Zrotation
							JOINT mixamorig1:LeftHand
							{
								OFFSET 23.772598 0.000000 0.000001
								CHANNELS 3 Xrotation Yrotation Zrotation
								JOINT mixamorig1:LeftHandThumb1
								{
									OFFSET 2.837997 -1.762253 1.813343
									CHANNELS 3 Xrotation Yrotation Zrotation
									JOINT mixamorig1:LeftHandThumb2
									{
										OFFSET 2.355415 -1.359894 1.359899
										CHANNELS 3 Xrotation Yrotation Zrotation
										JOINT mixamorig1:LeftHandThumb3
										{
											OFFSET 2.239815 -1.293152 1.293159
											CHANNELS 3 Xrotation Yrotation Zrotation
											JOINT mixamorig1:LeftHandThumb4
											{
												OFFSET 1.907059 -1.101044 1.101039
												CHANNELS 3 Xrotation Yrotation Zrotation
												End Site
												{
													OFFSET 1.641953 -0.977798 1.552217
												}
											}
										}
									}
								}
								JOINT mixamorig1:LeftHandIndex1
								{
									OFFSET 8.230507 -0.688934 1.983022
									CHANNELS 3 Xrotation Yrotation Zrotation
									JOINT mixamorig1:LeftHandIndex2
									{
										OFFSET 2.876244 0.000000 0.000000
										CHANNELS 3 Xrotation Yrotation Zrotation
										JOINT mixamorig1:LeftHandIndex3
										{
											OFFSET 2.645683 0.000000 0.000000
											CHANNELS 3 Xrotation Yrotation Zrotation
											JOINT mixamorig1:LeftHandIndex4
											{
												OFFSET 2.387100 0.000000 0.000000
												CHANNELS 3 Xrotation Yrotation Zrotation
												End Site
												{
													OFFSET 2.386902 -0.002136 -0.031026
												}
											}
										}
									}
								}
								JOINT mixamorig1:LeftHandMiddle1
								{
									OFFSET 8.184280 0.000000 0.000001
									CHANNELS 3 Xrotation Yrotation Zrotation
									JOINT mixamorig1:LeftHandMiddle2
									{
										OFFSET 2.984734 0.000000 0.000000
										CHANNELS 3 Xrotation Yrotation Zrotation
										JOINT mixamorig1:LeftHandMiddle3
										{
											OFFSET 2.781364 0.000000 0.000000
											CHANNELS 3 Xrotation Yrotation Zrotation
											JOINT mixamorig1:LeftHandMiddle4
											{
												OFFSET 2.587654 0.000000 0.000000
												CHANNELS 3 Xrotation Yrotation Zrotation
												End Site
												{
													OFFSET 2.586899 -0.004349 -0.062148
												}
											}
										}
									}
								}
								JOINT mixamorig1:LeftHandRing1
								{
									OFFSET 8.083641 -0.306778 -1.924516
									CHANNELS 3 Xrotation Yrotation Zrotation
									JOINT mixamorig1:LeftHandRing2
									{
										OFFSET 2.581863 0.000000 0.000000
										CHANNELS 3 Xrotation Yrotation Zrotation
										JOINT mixamorig1:LeftHandRing3
										{
											OFFSET 2.375542 0.000000 0.000000
											CHANNELS 3 Xrotation Yrotation Zrotation
											JOINT mixamorig1:LeftHandRing4
											{
												OFFSET 2.208664 0.000000 0.000000
												CHANNELS 3 Xrotation Yrotation Zrotation
												End Site
												{
													OFFSET 2.207703 -0.006699 -0.064855
												}
											}
										}
									}
								}
								JOINT mixamorig1:LeftHandPinky1
								{
									OFFSET 6.058754 -0.504105 -3.614325
									CHANNELS 3 Xrotation Yrotation Zrotation
									JOINT mixamorig1:LeftHandPinky2
									{
										OFFSET 2.372765 0.000000 0.000000
										CHANNELS 3 Xrotation Yrotation Zrotation
										JOINT mixamorig1:LeftHandPinky3
										{
											OFFSET 1.878433 0.000000 0.000000
											CHANNELS 3 Xrotation Yrotation Zrotation
											JOINT mixamorig1:LeftHandPinky4
											{
												OFFSET 1.672493 0.000000 0.000000
												CHANNELS 3 Xrotation Yrotation Zrotation
												End Site
												{
													OFFSET 1.670593 -0.007767 -0.079119
												}
											}
										}
									}
								}
							}
						}
					}
				}
				JOINT mixamorig1:RightShoulder
				{
					OFFSET -5.392900 13.235245 0.063341
					CHANNELS 3 Xrotation Yrotation Zrotation
					JOINT mixamorig1:RightArm
					{
						OFFSET -11.119505 -2.766800 -0.032163
						CHANNELS 3 Xrotation Yrotation Zrotation
						JOINT mixamorig1:RightForeArm
						{
							OFFSET -26.312298 0.000000 0.000001
							CHANNELS 3 Xrotation Yrotation Zrotation
							JOINT mixamorig1:RightHand
							{
								OFFSET -22.439495 0.000000 0.000001
								CHANNELS 3 Xrotation Yrotation Zrotation
								JOINT mixamorig1:RightHandThumb1
								{
									OFFSET -2.861877 -1.680130 1.692907
									CHANNELS 3 Xrotation Yrotation Zrotation
									JOINT mixamorig1:RightHandThumb2
									{
										OFFSET -2.308594 -1.332870 1.332868
										CHANNELS 3 Xrotation Yrotation Zrotation
										JOINT mixamorig1:RightHandThumb3
										{
											OFFSET -2.261650 -1.305771 1.305766
											CHANNELS 3 Xrotation Yrotation Zrotation
											JOINT mixamorig1:RightHandThumb4
											{
												OFFSET -1.972481 -1.138809 1.138812
												CHANNELS 3 Xrotation Yrotation Zrotation
												End Site
												{
													OFFSET -1.597870 -0.961639 1.733939
												}
											}
										}
									}
								}
								JOINT mixamorig1:RightHandIndex1
								{
									OFFSET -8.202507 -0.475891 1.749302
									CHANNELS 3 Xrotation Yrotation Zrotation
									JOINT mixamorig1:RightHandIndex2
									{
										OFFSET -2.752869 0.000000 0.000000
										CHANNELS 3 Xrotation Yrotation Zrotation
										JOINT mixamorig1:RightHandIndex3
										{
											OFFSET -2.661217 0.000000 0.000000
											CHANNELS 3 Xrotation Yrotation Zrotation
											JOINT mixamorig1:RightHandIndex4
											{
												OFFSET -2.379959 0.000000 0.000000
												CHANNELS 3 Xrotation Yrotation Zrotation
												End Site
												{
													OFFSET -2.379906 -0.001251 -0.016453
												}
											}
										}
									}
								}
								JOINT mixamorig1:RightHandMiddle1
								{
									OFFSET -7.999168 0.000000 0.000000
									CHANNELS 3 Xrotation Yrotation Zrotation
									JOINT mixamorig1:RightHandMiddle2
									{
										OFFSET -2.970795 0.000000 0.000000
										CHANNELS 3 Xrotation Yrotation Zrotation
										JOINT mixamorig1:RightHandMiddle3
										{
											OFFSET -2.858894 0.000000 0.000000
											CHANNELS 3 Xrotation Yrotation Zrotation
											JOINT mixamorig1:RightHandMiddle4
											{
												OFFSET -2.585396 0.000000 0.000000
												CHANNELS 3 Xrotation Yrotation Zrotation
												End Site
												{
													OFFSET -2.583305 -0.006760 -0.103880
												}
											}
										}
									}
								}
								JOINT mixamorig1:RightHandRing1
								{
									OFFSET -7.631630 -0.185577 -1.755434
									CHANNELS 3 Xrotation Yrotation Zrotation
									JOINT mixamorig1:RightHandRing2
									{
										OFFSET -2.822731 0.000000 0.000000
										CHANNELS 3 Xrotation Yrotation Zrotation
										JOINT mixamorig1:RightHandRing3
										{
											OFFSET -2.508270 0.000000 0.000000
											CHANNELS 3 Xrotation Yrotation Zrotation
											JOINT mixamorig1:RightHandRing4
											{
												OFFSET -2.281845 0.000000 0.000000
												CHANNELS 3 Xrotation Yrotation Zrotation
												End Site
												{
													OFFSET -2.279503 -0.008636 -0.103039
												}
											}
										}
									}
								}
								JOINT mixamorig1:RightHandPinky1
								{
									OFFSET -6.157494 -0.334320 -3.762905
									CHANNELS 3 Xrotation Yrotation Zrotation
									JOINT mixamorig1:RightHandPinky2
									{
										OFFSET -2.333817 0.000000 0.000000
										CHANNELS 3 Xrotation Yrotation Zrotation
										JOINT mixamorig1:RightHandPinky3
										{
											OFFSET -1.809532 0.000000 0.000000
											CHANNELS 3 Xrotation Yrotation Zrotation
											JOINT mixamorig1:RightHandPinky4
											{
												OFFSET -1.645355 0.000000 0.000000
												CHANNELS 3 Xrotation Yrotation Zrotation
												End Site
												{
													OFFSET -1.644600 -0.005798 -0.049462
												}
											}
										}
									}
								}
							}
						}
					}
				}
			}
		}
	}
	JOINT mixamorig1:LeftUpLeg
	{
		OFFSET 9.159500 -5.444397 0.181700
		CHANNELS 3 Xrotation Yrotation Zrotation
		JOINT mixamorig1:LeftLeg
		{
			OFFSET 0.645340 -45.725731 -1.179758
			CHANNELS 3 Xrotation Yrotation Zrotation
			JOINT mixamorig1:LeftFoot
			{
				OFFSET -0.645348 -41.970768 -1.151694
				CHANNELS 3 Xrotation Yrotation Zrotation
				JOINT mixamorig1:LeftToeBase
				{
					OFFSET 1.653111 -9.287139 11.878092
					CHANNELS 3 Xrotation Yrotation Zrotation
					JOINT mixamorig1:LeftToe_End
					{
						OFFSET 0.806067 0.003284 5.788242
						CHANNELS 3 Xrotation Yrotation Zrotation
						End Site
						{
							OFFSET 0.806068 0.003284 5.788242
						}
					}
				}
			}
		}
	}
	JOINT mixamorig1:RightUpLeg
	{
		OFFSET -9.159500 -5.444397 0.209100
		CHANNELS 3 Xrotation Yrotation Zrotation
		JOINT mixamorig1:RightLeg
		{
			OFFSET -0.645320 -45.725739 -1.164024
			CHANNELS 3 Xrotation Yrotation Zrotation
			JOINT mixamorig1:RightFoot
			{
				OFFSET 0.645327 -41.970695 -1.179469
				CHANNELS 3 Xrotation Yrotation Zrotation
				JOINT mixamorig1:RightToeBase
				{
					OFFSET -1.653143 -9.287123 11.914371
					CHANNELS 3 Xrotation Yrotation Zrotation
					JOINT mixamorig1:RightToe_End
					{
						OFFSET -0.806061 0.003276 5.790062
						CHANNELS 3 Xrotation Yrotation Zrotation
						End Site
						{
							OFFSET -0.806061 0.003276 5.790063
						}
					}
				}
			}
		}
	}
}
MOTION
Frames: 4
Frame Time: 0.033333
-0.157274 101.475830 -0.553828 -9.635379 5.028951 5.026518 15.738627 -5.214389 -2.842462 2.828929 -1.297233 -0.520220 2.839533 -1.291910 -0.480963 -10.214223 -0.289804 1.928838 0.301576 -0.062895 1.040855 -0.000000 0.000000 -0.000000 1.783141 -2.817865 -5.367160 8.347208 -11.449702 -68.845971 0.000009 -33.539033 0.000012 -23.608504 5.693697 2.838381 -3.469772 3.607323 7.883172 9.703613 22.223515 2.891142 -5.879062 9.699165 15.674849 0.000002 0.000002 -0.000000 0.162347 3.429602 -10.498179 0.209645 1.554742 -15.358570 0.209650 1.554739 -15.358582 0.000000 0.000000 -0.000002 0.362534 4.206371 -18.344227 0.474610 2.311797 -23.200221 0.474621 2.311789 -23.200237 0.000000 -0.000000 -0.000004 0.689037 4.991707 -26.673253 0.865732 3.066785 -31.521460 0.865746 3.066786 -31.521453 -0.000000 0.000001 -0.000001 0.902517 5.377882 -30.995364 1.110602 3.433626 -35.838170 1.110589 3.433611 -35.838136 -0.000000 -0.000000 0.000000 0.815655 9.465464 15.261687 -2.962849 1.768751 67.176686 -0.000013 20.011875 -0.000001 1.318005 -7.062439 -8.055840 -1.986199 -5.435658 -3.761592 8.766447 -20.697698 -3.062070 -5.504768 -5.510976 -14.718535 -0.000003 0.000004 -0.000002 2.057103 -6.108267 55.293557 5.419341 -4.594562 99.429372 3.163271 -4.411582 71.271255 -0.000000 0.000000 0.000001 2.592813 -6.426557 62.973443 4.946621 -4.648207 93.567301 3.098001 -4.388981 70.420582 0.000002 0.000000 -0.000001 2.854993 -6.549367 66.538569 4.919137 -4.649813 93.228189 2.921291 -4.322248 68.093940 -0.000002 0.000000 -0.000001 1.542105 -5.696839 47.168207 2.898947 -4.313235 67.797339 2.788737 -4.266689 66.323903 -0.000002 -0.000000 0.000001 -14.803498 6.396105 -1.481572 53.119740 -5.639272 -0.835240 -2.242304 0.124631 -1.146097 -1.795225 -0.000001 0.000001 0.000001 0.000001 0.000000 -0.637815 -6.276497 -4.102262 20.717922 6.077380 3.262603 -10.790889 0.723862 -5.520159 -1.006368 -0.000001 0.000000 0.000000 -0.000000 -0.000000 
0.131046 101.426239 2.571883 -9.305274 3.833125 4.990494 15.491670 -4.888000 -3.149863 2.925070 -1.154190 -0.635342 2.934087 -1.153602 -0.604497 -10.371923 -0.263379 1.911512 0.143916 -0.040173 1.018954 -0.000000 -0.000000 0.000000 1.706643 -3.359377 -5.358868 8.565990 -8.241555 -70.553170 -0.000015 -29.599400 -0.000005 -16.737319 6.774513 0.434206 -3.469773 3.607320 7.883173 9.703616 22.223516 2.891144 -5.879064 9.699165 15.674847 -0.000000 0.000002 -0.000000 0.162347 3.429603 -10.498180 0.209646 1.554742 -15.358572 0.209650 1.554739 -15.358582 -0.000000 -0.000001 -0.000001 0.362535 4.206371 -18.344228 0.474609 2.311795 -23.200221 0.474621 2.311790 -23.200238 -0.000001 -0.000000 -0.000002 0.689038 4.991707 -26.673251 0.865733 3.066785 -31.521456 0.865745 3.066787 -31.521453 -0.000001 0.000001 0.000000 0.902518 5.377882 -30.995368 1.110602 3.433629 -35.838170 1.110589 3.433611 -35.838136 0.000000 -0.000002 -0.000001 0.840351 9.300987 15.386050 -3.176989 1.961088 66.385265 -0.000002 20.310691 -0.000003 1.975597 -8.022757 -8.404144 -1.986198 -5.435658 -3.761590 8.766446 -20.697698 -3.062070 -5.504764 -5.510975 -14.718542 -0.000000 0.000004 0.000002 2.057105 -6.108266 55.293557 5.419339 -4.594565 99.429379 3.163271 -4.411584 71.271262 -0.000002 -0.000000 0.000001 2.592812 -6.426555 62.973443 4.946621 -4.648208 93.567308 3.098004 -4.388981 70.420589 -0.000002 0.000001 -0.000003 2.854992 -6.549366 66.538569 4.919132 -4.649814 93.228196 2.921296 -4.322244 68.093940 0.000001 0.000000 -0.000001 1.542106 -5.696839 47.168204 2.898946 -4.313237 67.797339 2.788739 -4.266687 66.323903 0.000000 0.000000 -0.000001 -17.175954 6.549724 -3.915403 45.265344 -5.868394 -0.806372 -1.063201 0.454967 -0.494792 -1.795202 0.000004 -0.000001 -0.000001 0.000001 -0.000000 1.143481 -6.525726 -4.433806 20.411257 5.991628 3.355840 -12.466894 2.336676 -5.416993 -1.006366 -0.000001 0.000002 0.000000 -0.000001 0.000000 
0.483331 101.351891 6.348683 -8.914926 2.622959 4.805847 15.114497 -4.509835 -3.309128 3.071576 -1.011375 -0.749277 3.078424 -1.015600 -0.727783 -10.544076 -0.235363 1.898029 -0.028228 -0.015187 1.000538 0.000000 0.000000 0.000000 1.619468 -3.690285 -5.550460 8.560177 -4.987778 -72.140902 -0.000004 -24.963081 -0.000026 -8.260729 7.807161 -3.142606 -3.469773 3.607319 7.883176 9.703614 22.223515 2.891144 -5.879061 9.699164 15.674844 0.000001 0.000000 -0.000003 0.162347 3.429602 -10.498178 0.209647 1.554740 -15.358572 0.209651 1.554737 -15.358585 -0.000000 0.000000 -0.000001 0.362533 4.206370 -18.344230 0.474610 2.311794 -23.200221 0.474622 2.311790 -23.200230 0.000001 -0.000001 0.000001 0.689038 4.991707 -26.673253 0.865734 3.066786 -31.521453 0.865746 3.066785 -31.521453 0.000001 0.000002 -0.000000 0.902518 5.377881 -30.995368 1.110602 3.433624 -35.838173 1.110590 3.433614 -35.838139 0.000002 0.000001 -0.000000 0.861973 9.160943 15.491987 -3.658776 2.305327 65.539483 -0.000004 19.683142 -0.000008 2.502407 -7.948488 -8.621599 -1.986199 -5.435657 -3.761591 8.766446 -20.697696 -3.062074 -5.504770 -5.510974 -14.718539 -0.000002 -0.000001 -0.000006 2.057104 -6.108266 55.293561 5.419341 -4.594560 99.429379 3.163272 -4.411584 71.271262 -0.000001 -0.000000 -0.000003 2.592814 -6.426557 62.973443 4.946621 -4.648205 93.567301 3.097998 -4.388980 70.420589 0.000001 0.000001 -0.000002 2.854992 -6.549366 66.538576 4.919134 -4.649812 93.228189 2.921294 -4.322246 68.093940 -0.000000 0.000000 -0.000002 1.542105 -5.696839 47.168207 2.898946 -4.313235 67.797332 2.788738 -4.266692 66.323903 0.000003 -0.000001 0.000000 -18.664042 5.960500 -5.799600 34.283148 -4.800359 -0.748160 0.064442 2.162149 -1.147225 -1.795228 0.000001 -0.000004 0.000000 0.000002 0.000000 3.853007 -6.571303 -4.603752 18.889264 5.872579 3.475288 -13.987319 3.726070 -5.157433 -0.995260 -0.000002 -0.000001 0.000000 -0.000002 0.000000 
0.860352 101.110443 10.507238 -8.535517 1.639129 4.413975 14.634922 -4.111535 -3.239883 3.254832 -0.887119 -0.827765 3.259337 -0.894990 -0.815197 -10.700667 -0.207053 1.901822 -0.184843 0.013262 0.999051 0.000000 -0.000000 -0.000000 1.536373 -3.643533 -6.018630 8.191903 -2.284666 -73.116157 0.000014 -20.228107 0.000015 1.103439 8.466422 -7.758171 -3.469775 3.607321 7.883174 9.703614 22.223513 2.891141 -5.879063 9.699163 15.674849 0.000001 -0.000002 0.000001 0.162347 3.429604 -10.498179 0.209646 1.554745 -15.358573 0.209651 1.554743 -15.358580 -0.000000 0.000001 -0.000003 0.362532 4.206372 -18.344230 0.474608 2.311795 -23.200221 0.474624 2.311787 -23.200242 0.000002 -0.000002 0.000000 0.689038 4.991708 -26.673253 0.865733 3.066787 -31.521453 0.865749 3.066789 -31.521453 -0.000002 -0.000001 0.000000 0.902520 5.377882 -30.995361 1.110603 3.433624 -35.838170 1.110587 3.433610 -35.838139 0.000001 -0.000001 0.000001 0.877658 9.064380 15.564968 -3.726247 2.600302 64.674126 -0.000002 19.610207 0.000001 2.779467 -7.981116 -8.748099 -1.986197 -5.435658 -3.761593 8.766449 -20.697698 -3.062073 -5.504764 -5.510981 -14.718539 -0.000005 -0.000001 0.000003 2.057105 -6.108265 55.293557 5.419341 -4.594562 99.429379 3.163271 -4.411582 71.271255 0.000001 0.000001 0.000000 2.592813 -6.426558 62.973443 4.946621 -4.648205 93.567301 3.098003 -4.388981 70.420582 -0.000003 0.000000 0.000000 2.854993 -6.549366 66.538569 4.919132 -4.649816 93.228196 2.921293 -4.322247 68.093940 0.000003 0.000001 -0.000000 1.542106 -5.696841 47.168200 2.898947 -4.313235 67.797339 2.788738 -4.266689 66.323896 -0.000000 -0.000001 0.000002 -19.430816 4.593522 -6.800536 22.814362 -1.082072 -0.308660 -0.345697 5.881866 -1.226543 -1.795216 -0.000001 0.000002 0.000000 0.000001 0.000000 7.170022 -6.350483 -4.497887 16.643305 5.782684 3.598169 -15.373492 4.563679 -4.795459 -0.988310 -0.000001 -0.000000 0.000000 -0.000002 -0.000000 
